# xmcd CD database file
#
# Track frame offsets:
#	150
#	27904
#	45398
#	64576
#	82469
#	111783
#	137566
#	156192
#	174726
#	189002
#	210191
#	231369
#	252743
#	269012
#	294331
#	306279
#
# Disc length: 4431 seconds
#
# Revision: 8
# Processed by: cddbd v1.5.2PL0 Copyright (c) Steve Scherf et al.
# Submitted via: CDex 1.51
#
DISCID=e5114d10
DTITLE=Walter Trout Band - Positively Beale Street
DYEAR=1997
DGENRE=Blues Rock
TTITLE0=Got A Broken Heart
TTITLE1=Obstacles In My Way
TTITLE2=One Way Street
TTITLE3=Tender Heart
TTITLE4=Come Home
TTITLE5=Marie's Mood
TTITLE6=Hardtime Blues
TTITLE7=In Love With You Again
TTITLE8=Don't Worry About It
TTITLE9=Song For A Wanderer
TTITLE10=Temptation
TTITLE11=Walkin' In The Rain
TTITLE12=If You Ever Change Your Mind
TTITLE13=Jules Well
TTITLE14=Let Me Be The One
TTITLE15=Boo
EXTD=YEAR: 1997
EXTT0=
EXTT1=
EXTT2=
EXTT3=
EXTT4=
EXTT5=
EXTT6=
EXTT7=
EXTT8=
EXTT9=
EXTT10=
EXTT11=
EXTT12=
EXTT13=
EXTT14=
EXTT15=
PLAYORDER=
